<svg width="50" height="45" viewBox="0 0 50 45" fill="none" xmlns="http://www.w3.org/2000/svg">
<path d="M50.175 24.6598V24.6584L49.4794 23.9066L49.5398 23.7423H49.5397L38.3202 19.6134V6.37654V6.20154H38.3193C38.3384 5.78652 38.0896 5.39232 37.6844 5.24633C37.6842 5.24625 37.684 5.24616 37.6837 5.24608L25.8309 0.884802C25.8308 0.884752 25.8306 0.884702 25.8305 0.884652C25.6172 0.805132 25.3828 0.805132 25.1695 0.884652C25.1694 0.884702 25.1692 0.884752 25.1691 0.884802L13.315 5.24653L13.3144 5.24674C13.0502 5.34504 12.8444 5.5533 12.7456 5.81363H12.6798V5.98863V19.6134L1.46019 23.7423L1.45961 23.7426C1.19537 23.8409 0.989595 24.0491 0.890795 24.3094H0.824997V24.4844V38.6632V38.8382H0.82546C0.825291 39.2392 1.07159 39.6106 1.46032 39.7533L13.314 44.1149C13.314 44.1149 13.3141 44.1149 13.3142 44.115C13.5276 44.195 13.7625 44.195 13.976 44.115C13.9761 44.115 13.9762 44.1149 13.9763 44.1149L25.5 39.8745L37.0237 44.1149C37.0237 44.1149 37.0238 44.1149 37.0239 44.115C37.2374 44.195 37.4723 44.195 37.6858 44.115C37.6859 44.1149 37.6859 44.1149 37.686 44.1149L49.5398 39.7533C49.7906 39.661 49.9898 39.469 50.0942 39.2261H50.175V39.0511V24.8724V24.8716V24.8715V24.8712V24.87V24.8655L50.1749 24.8485L50.1748 24.7922C50.1747 24.7478 50.1747 24.6951 50.175 24.6598ZM12.6798 29.7034V41.8066L2.75565 38.1552V26.051L12.6798 29.7034ZM13.5829 21.3557L22.6193 24.6814L13.6452 27.9831L4.60971 24.6584L13.5829 21.3557ZM24.5347 26.051V38.1552L14.6105 41.8066V29.7034L24.5347 26.051ZM24.5347 11.2075V23.2658L14.6105 19.6134V7.55521L24.5347 11.2075ZM16.4646 6.16259L25.5 2.83786L34.5354 6.16259L25.5 9.48731L16.4646 6.16259ZM26.4653 11.2075L36.3895 7.55521V19.6134L26.4653 23.2658V11.2075ZM36.3895 29.7034V41.8066L26.4653 38.1552V26.051L36.3895 29.7034ZM46.3903 24.6584L37.3548 27.9831L28.3807 24.6814L37.4171 21.3557L46.3903 24.6584ZM48.2444 26.051V38.1552L38.3202 41.8066V29.7034L48.2444 26.051Z" fill="white" stroke="white" stroke-width="0.35"/>
</svg>
