<?xml version="1.0" encoding="iso-8859-1"?>
<!-- Generator: Adobe Illustrator 19.0.0, SVG Export Plug-In . SVG Version: 6.00 Build 0)  -->
<svg version="1.1" id="Capa_1" xmlns="http://www.w3.org/2000/svg" xmlns:xlink="http://www.w3.org/1999/xlink" x="0px" y="0px"
	 viewBox="0 0 512 512" style="enable-background:new 0 0 512 512;" xml:space="preserve">
<circle style="fill:#FFEC97;" cx="256" cy="256" r="256"/>
<path style="fill:#FFDF47;" d="M512,256c0-16.15-1.512-31.946-4.372-47.267L376.222,77.327
	c-11.157-13.375-27.943-21.89-46.722-21.89c-33.591,0-60.821,27.231-60.821,60.821c0,12.771,3.946,24.614,10.673,34.397
	L220.894,91.25c-48.631-3.344-61.156,27.37-64.442,54.954c-2.189-2.487-4.555-4.843-7.106-7.003
	c-15.924-18.617-41.706-30.292-78.214-10.194l40.952,40.466c-18.963,3.735-37.606,16.558-46.557,49.199l60.938,60.938
	c-3.645,23.935-6.109,52.239-6.109,85.074l147.049,147.049C403.495,505.767,512,393.562,512,256z"/>
<circle style="fill:#FFB84D;" cx="329.5" cy="116.26" r="60.821"/>
<path style="fill:#FF9A00;" d="M390.321,116.259c0,33.591-27.231,60.821-60.821,60.821V55.438
	C363.091,55.438,390.321,82.668,390.321,116.259z"/>
<path style="fill:#FF8900;" d="M512,256c0,61.61-21.77,118.13-58.03,162.31c-21.16,25.79-47.28,47.37-76.88,63.29
	C341.04,501,299.8,512,256,512c-18.15,0-35.87-1.89-52.95-5.49V458.8c0-32.75,5.92-64.18,16.73-93.28
	c8.34-22.43,19.58-43.47,33.27-62.67c49.01-68.7,129.34-113.71,219.67-113.71h30.46C508.93,210.46,512,232.87,512,256z"/>
<path style="fill:#E67500;" d="M512,256c0,61.61-21.77,118.13-58.03,162.31c-21.16,25.79-47.28,47.37-76.88,63.29
	C341.04,501,299.8,512,256,512V298.81c49.23-66.42,128.17-109.67,216.72-109.67h30.46C508.93,210.46,512,232.87,512,256z"/>
<path style="fill:#FFB84D;" d="M453.97,418.31c-21.16,25.79-47.28,47.37-76.88,63.29C341.04,501,299.8,512,256,512
	c-18.15,0-35.87-1.89-52.95-5.49c-79.4-16.69-145.26-70.19-178.89-141.82c-6.99-14.87-12.59-30.53-16.62-46.8
	c22.71-9.68,47.67-15.04,73.81-15.04h198.19C357.55,302.85,424.96,350.59,453.97,418.31z"/>
<path style="fill:#FF9A00;" d="M453.97,418.31c-21.16,25.79-47.28,47.37-76.88,63.29C341.04,501,299.8,512,256,512V302.85h23.54
	C357.55,302.85,424.96,350.59,453.97,418.31z"/>
<path style="fill:#00EFD1;" d="M24.16,364.69h177.88c5.98,0,11.9,0.28,17.74,0.83c70.93,6.66,130.83,52.81,157.31,116.08
	C341.04,501,299.8,512,256,512c-18.15,0-35.87-1.89-52.95-5.49C123.65,489.82,57.79,436.32,24.16,364.69z"/>
<path style="fill:#00CEB4;" d="M377.09,481.6C341.04,501,299.8,512,256,512V372.56C310.72,388.92,355.26,429.44,377.09,481.6z"/>
<path style="fill:#C06100;" d="M156.883,178.651c0,0-36.528,59.526-36.528,186.034h59.602c0,0-22.253-122.811,0-186.034H156.883z"/>
<path style="fill:#9A4C00;" d="M178.265,354.383c1.009,6.538,1.691,10.302,1.691,10.302h-23.761V179.85c0.445-0.8,0.69-1.2,0.69-1.2
	h23.072c-13.913,39.524-10.435,102.333-5.866,143.875C175.551,335.799,177.123,346.91,178.265,354.383z"/>
<path style="fill:#007F40;" d="M151.874,179.719c0,0,84.822-28.167,96.422,54.322l-93.309-41.138L151.874,179.719z"/>
<path style="fill:#36CD90;" d="M168.024,177.887c0,0-80.505-39.417-102.498,40.786l90.673-25.236l5.75-2.496L168.024,177.887z"/>
<g>
	<path style="fill:#00A753;" d="M155.722,173.35c0,0,48.563-77.103,108.01-20.679l-93.035,35.494L155.722,173.35z"/>
	<path style="fill:#00A753;" d="M220.894,91.251l-49.852,96.248l-0.349,0.666l-14.491,5.273l-0.007-0.008l-85.064-64.423
		c42.309-23.291,70.216-3.911,85.064,19.495C159.065,120.359,170.909,87.814,220.894,91.251z"/>
</g>
<path style="fill:#008C4A;" d="M220.894,91.251l-49.852,96.248l-0.349,0.666l-14.491,5.273l-0.007-0.008v-44.929
	C159.065,120.359,170.909,87.814,220.894,91.251z"/>
<g>
	<rect x="88.19" y="389" style="fill:#FFFFFF;" width="69.977" height="17.04"/>
	<rect x="212.96" y="423.31" style="fill:#FFFFFF;" width="69.977" height="17.04"/>
</g>
<g>
	<rect x="208.96" y="324.33" style="fill:#FF9A00;" width="69.977" height="16.518"/>
	<rect x="43.29" y="324.33" style="fill:#FF9A00;" width="69.977" height="16.518"/>
	<rect x="296" y="324.33" style="fill:#FF9A00;" width="26" height="16.518"/>
</g>
<rect x="305.49" y="358.12" style="fill:#E67500;" width="58.01" height="16.518"/>
<g>
	<rect x="415.82" y="316.07" style="fill:#C06100;" width="69.977" height="16.518"/>
	<rect x="378.27" y="229.52" style="fill:#C06100;" width="69.977" height="16.518"/>
	<path style="fill:#C06100;" d="M511.44,239.04h-28.9v-16.52h27.29C510.54,227.97,511.08,233.48,511.44,239.04z"/>
	<path style="fill:#C06100;" d="M511.74,267.69c-0.25,5.55-0.68,11.06-1.28,16.52h-46.35v-16.52H511.74z"/>
	<rect x="403.01" y="273.19" style="fill:#C06100;" width="26" height="16.518"/>
	<rect x="324.83" y="273.19" style="fill:#C06100;" width="58.01" height="16.518"/>
</g>
<g>
	<rect x="357.52" y="403" style="fill:#E67500;" width="23.429" height="16.518"/>
	<rect x="393.02" y="403" style="fill:#E67500;" width="37.489" height="16.518"/>
</g>
<g>
	<rect x="123.17" y="423.31" style="fill:#FFFFFF;" width="60.4" height="17.04"/>
	<rect x="177.57" y="389" style="fill:#FFFFFF;" width="25.477" height="17.04"/>
	<rect x="172.74" y="459.71" style="fill:#FFFFFF;" width="72.43" height="17.04"/>
</g>
<g>
	<rect x="290.98" y="460.96" style="fill:#FFED97;" width="35.35" height="17.04"/>
	<rect x="256" y="423.31" style="fill:#FFED97;" width="26.94" height="17.04"/>
</g>
<rect x="256" y="324.33" style="fill:#E67500;" width="22.94" height="16.52"/>
<g>
</g>
<g>
</g>
<g>
</g>
<g>
</g>
<g>
</g>
<g>
</g>
<g>
</g>
<g>
</g>
<g>
</g>
<g>
</g>
<g>
</g>
<g>
</g>
<g>
</g>
<g>
</g>
<g>
</g>
</svg>
