<svg width="48" height="48" viewBox="0 0 48 48" fill="none" xmlns="http://www.w3.org/2000/svg">
<path d="M45.8181 26.4546C45.1636 26.4546 44.7273 26.9455 44.7273 27.6818V43.6364C44.7273 44.3728 44.2909 44.8636 43.6364 44.8636H4.36357C3.70901 44.8636 3.2727 44.3727 3.2727 43.6364V27.6818C3.2727 26.9454 2.83629 26.4546 2.18183 26.4546C1.52736 26.4546 1.09095 26.9455 1.09095 27.6818V43.6364C1.09095 45.7228 2.50911 47.3182 4.36367 47.3182H43.6364C45.491 47.3182 46.9091 45.7228 46.9091 43.6364V27.6818C46.9091 26.9454 46.4727 26.4546 45.8181 26.4546Z" fill="white"/>
<path d="M44.7273 9.27277H3.27272C1.41816 9.27277 0 10.8682 0 12.9546V20.8091C0 22.5272 1.09087 24 2.50912 24.3682L19.6364 28.6636V32.5909C19.6364 33.3272 20.0728 33.8181 20.7273 33.8181H27.2727C27.9273 33.8181 28.3636 33.3271 28.3636 32.5909V28.6636L45.4909 24.3682C46.9091 24 48 22.5272 48 20.809V12.9545C48 10.8682 46.5818 9.27277 44.7273 9.27277ZM26.1818 31.3636H21.8182V26.4546H26.1818V31.3636ZM45.8182 20.809C45.8182 21.4227 45.4909 21.9136 44.9454 22.0363L28.3636 26.209V25.2272C28.3636 24.4908 27.9272 24 27.2727 24H20.7273C20.0727 24 19.6364 24.491 19.6364 25.2272V26.209L3.05456 22.0364C2.50912 21.9136 2.18184 21.4228 2.18184 20.8091V12.9546C2.18184 12.2182 2.61825 11.7273 3.27272 11.7273H44.7273C45.3818 11.7273 45.8182 12.2183 45.8182 12.9546V20.809Z" fill="white"/>
<path d="M29.4546 0.681824H18.5454C16.6909 0.681824 15.2727 2.27725 15.2727 4.36363V5.59086C15.2727 6.32725 15.7091 6.8181 16.3636 6.8181C17.0181 6.8181 17.4545 6.32714 17.4545 5.59086V4.36363C17.4545 3.62725 17.8909 3.1364 18.5453 3.1364H29.4545C30.109 3.1364 30.5453 3.62735 30.5453 4.36363V5.59086C30.5453 6.32725 30.9818 6.8181 31.6362 6.8181C32.2908 6.8181 32.7271 6.32714 32.7271 5.59086V4.36363C32.7273 2.27725 31.3091 0.681824 29.4546 0.681824Z" fill="white"/>
</svg>
