<svg width="48" height="54" viewBox="0 0 48 54" fill="none" xmlns="http://www.w3.org/2000/svg">
<path d="M45.8181 29.4546C45.1636 29.4546 44.7273 29.9455 44.7273 30.6818V46.6364C44.7273 47.3728 44.2909 47.8636 43.6364 47.8636H4.36358C3.70901 47.8636 3.2727 47.3727 3.2727 46.6364V30.6818C3.2727 29.9454 2.83629 29.4546 2.18183 29.4546C1.52736 29.4546 1.09095 29.9455 1.09095 30.6818V46.6364C1.09095 48.7228 2.50911 50.3182 4.36367 50.3182H43.6364C45.491 50.3182 46.9091 48.7228 46.9091 46.6364V30.6818C46.9091 29.9454 46.4727 29.4546 45.8181 29.4546Z" fill="#F78CB6"/>
<path d="M44.7273 12.2728H3.27272C1.41816 12.2728 0 13.8682 0 15.9546V23.8091C0 25.5272 1.09087 27 2.50912 27.3682L19.6364 31.6636V35.5909C19.6364 36.3272 20.0728 36.8181 20.7273 36.8181H27.2727C27.9273 36.8181 28.3636 36.3271 28.3636 35.5909V31.6636L45.4909 27.3682C46.9091 27 48 25.5272 48 23.809V15.9545C48 13.8682 46.5818 12.2728 44.7273 12.2728ZM26.1818 34.3636H21.8182V29.4546H26.1818V34.3636ZM45.8182 23.809C45.8182 24.4227 45.4909 24.9136 44.9454 25.0363L28.3636 29.209V28.2272C28.3636 27.4908 27.9272 27 27.2727 27H20.7273C20.0727 27 19.6364 27.491 19.6364 28.2272V29.209L3.05456 25.0364C2.50913 24.9136 2.18184 24.4228 2.18184 23.8091V15.9546C2.18184 15.2182 2.61825 14.7273 3.27272 14.7273H44.7273C45.3818 14.7273 45.8182 15.2183 45.8182 15.9546V23.809V23.809Z" fill="#F78CB6"/>
<path d="M29.4546 3.68182H18.5454C16.6909 3.68182 15.2727 5.27725 15.2727 7.36363V8.59086C15.2727 9.32725 15.7091 9.8181 16.3636 9.8181C17.0181 9.8181 17.4545 9.32714 17.4545 8.59086V7.36363C17.4545 6.62725 17.8909 6.1364 18.5453 6.1364H29.4545C30.109 6.1364 30.5453 6.62735 30.5453 7.36363V8.59086C30.5453 9.32725 30.9818 9.8181 31.6362 9.8181C32.2908 9.8181 32.7271 9.32714 32.7271 8.59086V7.36363C32.7273 5.27725 31.3091 3.68182 29.4546 3.68182Z" fill="#F78CB6"/>
</svg>
