<svg width="42" height="46" viewBox="0 0 42 46" fill="none" xmlns="http://www.w3.org/2000/svg">
<path d="M2.33173 31.8445L20.9508 43.6517C21.2847 43.8635 21.7121 43.8586 22.0411 43.6393L39.7519 31.8321C40.3457 31.4362 40.3457 30.5638 39.7519 30.168L22.0411 18.3607C21.7121 18.1414 21.2847 18.1365 20.9508 18.3483L2.33173 30.1555C1.71245 30.5482 1.71245 31.4518 2.33173 31.8445Z" fill="#FFF1F9" stroke="#F78CB6" stroke-width="2.5"/>
<path d="M2.33173 23.8445L20.9508 35.6517C21.2847 35.8635 21.7121 35.8586 22.0411 35.6393L39.7519 23.8321C40.3457 23.4362 40.3457 22.5638 39.7519 22.168L22.0411 10.3607C21.7121 10.1414 21.2847 10.1365 20.9508 10.3483L2.33173 22.1555C1.71245 22.5482 1.71245 23.4518 2.33173 23.8445Z" fill="#FFF1F9" stroke="#F78CB6" stroke-width="2.5"/>
<path d="M2.33173 15.8445L20.9508 27.6517C21.2847 27.8635 21.7121 27.8586 22.0411 27.6393L39.7519 15.8321C40.3457 15.4362 40.3457 14.5638 39.7519 14.168L22.0411 2.36071C21.7121 2.14139 21.2847 2.1365 20.9508 2.34826L2.33173 14.1555C1.71245 14.5482 1.71245 15.4518 2.33173 15.8445Z" fill="#FFF1F9" stroke="#F78CB6" stroke-width="2.5"/>
</svg>
